<?xml version="1.0" encoding="UTF-8"?>
<svg id="_レイヤー_2" data-name="レイヤー 2" xmlns="http://www.w3.org/2000/svg" viewBox="0 0 481.31 39.96">
  <defs>
    <style>
      .cls-1 {
        letter-spacing: -.02em;
      }

      .cls-2 {
        stroke-width: 0px;
      }

      .cls-3 {
        fill: #fff;
        font-family: AcuminConcept-BoldItalic, 'Acumin Variable Concept';
        font-size: 30.58px;
        font-style: italic;
        font-variation-settings: 'wght' 700, 'wdth' 100, 'slnt' 12;
        font-weight: 700;
      }
    </style>
  </defs>
  <g id="_レイヤー_1-2" data-name="レイヤー 1">
    <g>
      <g>
        <path class="cls-2" d="m98.9,26.41c-1.32,6.31-6.07,10.91-14.53,10.91-10.71,0-15.75-7.58-15.75-17.17s5.23-17.51,16.09-17.51c9,0,13.36,5.23,14.19,10.91h-7.29c-.73-2.64-2.54-5.23-7.14-5.23-6.02,0-8.32,5.43-8.32,11.59,0,5.67,2.01,11.69,8.51,11.69,4.79,0,6.26-3.18,6.9-5.19h7.34Z"/>
        <path class="cls-2" d="m136.17,19.86c0,9.39-5.63,17.46-16.58,17.46s-16.14-7.68-16.14-17.37,6.11-17.32,16.58-17.32c9.88,0,16.14,6.9,16.14,17.22Zm-25.19-.05c0,6.6,2.89,11.59,8.85,11.59,6.51,0,8.81-5.43,8.81-11.45,0-6.41-2.64-11.4-8.9-11.4s-8.76,4.7-8.76,11.25Z"/>
        <path class="cls-2" d="m204.8,26.41c-1.32,6.31-6.07,10.91-14.53,10.91-10.71,0-15.75-7.58-15.75-17.17s5.23-17.51,16.09-17.51c9,0,13.36,5.23,14.19,10.91h-7.29c-.73-2.64-2.54-5.23-7.14-5.23-6.02,0-8.32,5.43-8.32,11.59,0,5.67,2.01,11.69,8.51,11.69,4.79,0,6.26-3.18,6.9-5.19h7.34Z"/>
        <path class="cls-2" d="m211.02,3.13h7.29v13.11h13.6V3.13h7.29v33.71h-7.29v-14.58h-13.6v14.58h-7.29V3.13Z"/>
        <path class="cls-2" d="m253.97,9.1h-10.27V3.13h27.79v5.97h-10.22v27.74h-7.29V9.1Z"/>
        <path class="cls-2" d="m299.22,22.3h-16.14v8.56h17.81l-.88,5.97h-24.02V3.13h23.92v5.97h-16.83v7.19h16.14v6.02Z"/>
        <path class="cls-2" d="m334.83,26.41c-1.32,6.31-6.07,10.91-14.53,10.91-10.71,0-15.75-7.58-15.75-17.17s5.23-17.51,16.09-17.51c9,0,13.35,5.23,14.19,10.91h-7.29c-.73-2.64-2.54-5.23-7.14-5.23-6.02,0-8.32,5.43-8.32,11.59,0,5.67,2.01,11.69,8.51,11.69,4.79,0,6.26-3.18,6.9-5.19h7.34Z"/>
        <path class="cls-2" d="m341.04,3.13h7.29v13.11h13.6V3.13h7.29v33.71h-7.29v-14.58h-13.6v14.58h-7.29V3.13Z"/>
        <path class="cls-2" d="m159.65,3.13h-9.15l-11.45,33.71h7.19c1.91-6.12,7.73-25.14,8.56-28.47h.05c.83,3.03,6.7,21.33,9.1,28.47-.03-.07,0,0,0,0h7.68l-11.99-33.71Z"/>
      </g>
      <path class="cls-2" d="m56.57,1.45H22.21C12.3,1.45,2.55,9.48.41,19.39H.41c-2.13,9.9,4.17,17.93,14.07,17.93h10.87c1.47,0,2.91-1.19,3.23-2.66l1.51-7.04c.32-1.47-.62-2.66-2.09-2.66h-12.08c-2.75,0-4.7-2.12-4.19-4.88.53-2.85,3.31-5.19,6.14-5.19h19c1.47,0,2.4,1.19,2.09,2.66l-3.68,17.1c-.32,1.47.62,2.66,2.09,2.66h8.81c1.47,0,2.91-1.19,3.23-2.66l3.68-17.1c.32-1.47,1.76-2.66,3.23-2.66h0c1.47,0,2.91-1.19,3.23-2.66l2.32-10.8h-5.32Z"/>
      <path class="cls-2" d="m469.68,39.96l-78.04-.05c-2.8,0-4.89-2.56-4.34-5.3l6.22-31.06C393.94,1.49,395.76,0,397.87,0l83.44.05-7.28,36.35c-.41,2.07-2.23,3.56-4.35,3.56Z"/>
      <text class="cls-3" transform="translate(403.74 31.18)"><tspan x="0" y="0">L</tspan><tspan class="cls-1" x="17.12" y="0">M</tspan><tspan x="42.6" y="0">S</tspan></text>
    </g>
  </g>
</svg>