<svg width="200" height="17" viewBox="0 0 200 17" fill="none" xmlns="http://www.w3.org/2000/svg">
<g clip-path="url(#clip0_290_3908)">
<path d="M41.0958 11.0166C40.5458 13.65 38.575 15.5666 35.0583 15.5666C30.6083 15.5666 28.5125 12.4041 28.5125 8.40414C28.5125 4.40414 30.6875 1.09998 35.2 1.09998C38.9417 1.09998 40.75 3.28331 41.0958 5.64998H38.0667C37.7625 4.54998 37.0083 3.46664 35.1 3.46664C32.6 3.46664 31.6458 5.73331 31.6458 8.29998C31.6458 10.6666 32.4792 13.175 35.1833 13.175C37.175 13.175 37.7833 11.85 38.05 11.0125H41.1L41.0958 11.0166Z" fill="white"/>
<path d="M56.5833 8.28329C56.5833 12.2 54.2458 15.5666 49.6917 15.5666C45.1375 15.5666 42.9833 12.3625 42.9833 8.32496C42.9833 4.28746 45.525 1.10413 49.875 1.10413C53.9792 1.10413 56.5833 3.97913 56.5833 8.28746V8.28329ZM46.1167 8.26246C46.1167 11.0166 47.3167 13.0958 49.7958 13.0958C52.5 13.0958 53.4542 10.8333 53.4542 8.32079C53.4542 5.64996 52.3583 3.56663 49.7542 3.56663C47.15 3.56663 46.1167 5.52496 46.1167 8.25829V8.26246Z" fill="white"/>
<path d="M85.1042 11.0166C84.5542 13.65 82.5833 15.5666 79.0667 15.5666C74.6167 15.5666 72.5208 12.4041 72.5208 8.40414C72.5208 4.40414 74.6958 1.09998 79.2083 1.09998C82.95 1.09998 84.7583 3.28331 85.1042 5.64998H82.075C81.7708 4.54998 81.0167 3.46664 79.1083 3.46664C76.6083 3.46664 75.6542 5.73331 75.6542 8.29998C75.6542 10.6666 76.4875 13.175 79.1917 13.175C81.1833 13.175 81.7917 11.85 82.0583 11.0125H85.1083L85.1042 11.0166Z" fill="white"/>
<path d="M87.6833 1.3042H90.7125V6.77087H96.3625V1.3042H99.3917V15.3625H96.3625V9.28337H90.7125V15.3625H87.6833V1.3042Z" fill="white"/>
<path d="M105.529 3.79587H101.258V1.3042H112.804V3.7917H108.554V15.3584H105.525V3.79587H105.529Z" fill="white"/>
<path d="M124.333 9.3042H117.625V12.875H125.025L124.658 15.3625H114.679V1.3042H124.621V3.7917H117.629V6.7917H124.337V9.30003L124.333 9.3042Z" fill="white"/>
<path d="M139.133 11.0166C138.583 13.65 136.613 15.5666 133.096 15.5666C128.646 15.5666 126.55 12.4041 126.55 8.40414C126.55 4.40414 128.725 1.09998 133.237 1.09998C136.979 1.09998 138.788 3.28331 139.133 5.64998H136.104C135.8 4.54998 135.046 3.46664 133.138 3.46664C130.638 3.46664 129.683 5.73331 129.683 8.29998C129.683 10.6666 130.517 13.175 133.221 13.175C135.213 13.175 135.821 11.85 136.087 11.0125H139.137L139.133 11.0166Z" fill="white"/>
<path d="M141.712 1.3042H144.742V6.77087H150.392V1.3042H153.421V15.3625H150.392V9.28337H144.742V15.3625H141.712V1.3042Z" fill="white"/>
<path d="M66.3417 1.3042H62.5417L57.7833 15.3625H60.7708C61.5625 12.8125 63.9833 4.87503 64.3292 3.48753H64.35C64.6958 4.7542 67.1333 12.3834 68.1292 15.3625H71.3208L66.3417 1.3042Z" fill="white"/>
<path d="M23.5042 0.608276H9.22917C5.1125 0.608276 1.05833 3.95411 0.170833 8.08744C-0.716667 12.2166 1.90417 15.5666 6.02083 15.5666H10.5375C11.1458 15.5666 11.75 15.0708 11.8792 14.4583L12.5083 11.5249C12.6417 10.9124 12.25 10.4166 11.6417 10.4166H6.62083C5.475 10.4166 4.66667 9.53328 4.87917 8.38328C5.09167 7.23328 6.25833 6.22078 7.43333 6.22078H15.325C15.9333 6.22078 16.325 6.71661 16.1917 7.32911L14.6625 14.4583C14.5292 15.0708 14.9208 15.5666 15.5292 15.5666H19.1917C19.8 15.5666 20.4042 15.0708 20.5333 14.4583L22.0625 7.32911C22.1958 6.71661 22.7958 6.22078 23.4042 6.22078C24.0125 6.22078 24.6167 5.72494 24.7458 5.11244L25.7125 0.608276H23.5042Z" fill="white"/>
<path d="M165.329 0C164.45 0 163.696 0.620833 163.525 1.48333L160.942 14.4375C160.713 15.5792 161.583 16.6458 162.746 16.65L195.175 16.6708C196.054 16.6708 196.808 16.05 196.979 15.1875L200 0.0208333L165.329 0ZM173.875 13.0042H168.071L169.929 4.2125H171.717L170.175 11.5333H174.379L173.875 13.0083V13.0042ZM182.208 13.0042L182.904 9.70417C183.217 8.20417 183.608 6.44167 183.846 5.45H183.796C183.029 7.22917 181.6 10.2542 180.254 13.0042H178.7C178.579 10.8375 178.371 7.09583 178.375 5.42917H178.317C178.179 6.45 177.813 8.34583 177.492 9.85417L176.825 13.0083H175.167L177.025 4.21667H179.729C179.867 6.35833 180.008 9.3625 180.008 10.6667H180.021C180.487 9.47917 181.954 6.61667 183.104 4.21667H185.808L183.95 13.0083H182.204L182.208 13.0042ZM189.929 7.70417C191.708 8.32917 192.592 9.04167 192.592 10.3708C192.592 11.7708 191.746 13.1292 189.042 13.1292C186.854 13.1292 185.704 12.0167 185.654 10.3H187.479C187.55 11.1875 188.113 11.7458 189.225 11.7458C190.175 11.7458 190.712 11.3958 190.712 10.5958C190.712 9.91667 190.288 9.55417 189.121 9.15C187.338 8.5375 186.679 7.81667 186.679 6.7125C186.679 5.3 187.675 4.08333 189.9 4.08333C191.929 4.08333 193.042 5.13333 193.071 6.67917H191.25C191.212 6.14583 190.975 5.4875 189.821 5.4875C189.075 5.4875 188.525 5.82917 188.525 6.50833C188.525 6.99583 188.804 7.30833 189.929 7.7V7.70417Z" fill="white"/>
</g>
<defs>
<clipPath id="clip0_290_3908">
<rect width="200" height="16.6667" fill="white"/>
</clipPath>
</defs>
</svg>
