<svg width="240" height="20" viewBox="0 0 240 20" fill="none" xmlns="http://www.w3.org/2000/svg">
<path d="M49.3168 13.2184C48.6568 16.3784 46.2918 18.6784 42.0718 18.6784C36.7318 18.6784 34.2168 14.8834 34.2168 10.0834C34.2168 5.28336 36.8268 1.31836 42.2418 1.31836C46.7318 1.31836 48.9018 3.93836 49.3168 6.77836H45.6818C45.3168 5.45836 44.4118 4.15836 42.1218 4.15836C39.1218 4.15836 37.9768 6.87836 37.9768 9.95836C37.9768 12.7984 38.9768 15.8084 42.2218 15.8084C44.6118 15.8084 45.3418 14.2184 45.6618 13.2134H49.3218L49.3168 13.2184Z" fill="black"/>
<path d="M67.902 9.93922C67.902 14.6392 65.097 18.6792 59.632 18.6792C54.167 18.6792 51.582 14.8342 51.582 9.98922C51.582 5.14422 54.632 1.32422 59.852 1.32422C64.777 1.32422 67.902 4.77422 67.902 9.94422V9.93922ZM55.342 9.91422C55.342 13.2192 56.782 15.7142 59.757 15.7142C63.002 15.7142 64.147 12.9992 64.147 9.98422C64.147 6.77922 62.832 4.27922 59.707 4.27922C56.582 4.27922 55.342 6.62922 55.342 9.90922V9.91422Z" fill="black"/>
<path d="M102.127 13.2184C101.467 16.3784 99.1023 18.6784 94.8823 18.6784C89.5423 18.6784 87.0273 14.8834 87.0273 10.0834C87.0273 5.28336 89.6373 1.31836 95.0523 1.31836C99.5423 1.31836 101.712 3.93836 102.127 6.77836H98.4923C98.1273 5.45836 97.2223 4.15836 94.9323 4.15836C91.9323 4.15836 90.7873 6.87836 90.7873 9.95836C90.7873 12.7984 91.7873 15.8084 95.0323 15.8084C97.4223 15.8084 98.1523 14.2184 98.4723 13.2134H102.132L102.127 13.2184Z" fill="black"/>
<path d="M105.223 1.5625H108.858V8.1225H115.638V1.5625H119.273V18.4325H115.638V11.1375H108.858V18.4325H105.223V1.5625Z" fill="black"/>
<path d="M126.637 4.5525H121.512V1.5625H135.367V4.5475H130.267V18.4275H126.632V4.5525H126.637Z" fill="black"/>
<path d="M149.202 11.1625H141.152V15.4475H150.032L149.592 18.4325H137.617V1.5625H149.547V4.5475H141.157V8.1475H149.207V11.1575L149.202 11.1625Z" fill="black"/>
<path d="M166.961 13.2184C166.301 16.3784 163.936 18.6784 159.716 18.6784C154.376 18.6784 151.861 14.8834 151.861 10.0834C151.861 5.28336 154.471 1.31836 159.886 1.31836C164.376 1.31836 166.546 3.93836 166.961 6.77836H163.326C162.961 5.45836 162.056 4.15836 159.766 4.15836C156.766 4.15836 155.621 6.87836 155.621 9.95836C155.621 12.7984 156.621 15.8084 159.866 15.8084C162.256 15.8084 162.986 14.2184 163.306 13.2134H166.966L166.961 13.2184Z" fill="black"/>
<path d="M170.057 1.5625H173.692V8.1225H180.472V1.5625H184.107V18.4325H180.472V11.1375H173.692V18.4325H170.057V1.5625Z" fill="black"/>
<path d="M79.6118 1.5625H75.0518L69.3418 18.4325H72.9268C73.8768 15.3725 76.7818 5.8475 77.1968 4.1825H77.2218C77.6368 5.7025 80.5618 14.8575 81.7568 18.4325H85.5868L79.6118 1.5625Z" fill="black"/>
<path d="M28.2072 0.728516H11.0772C6.13723 0.728516 1.27223 4.74352 0.207233 9.70352C-0.857767 14.6585 2.28723 18.6785 7.22723 18.6785H12.6472C13.3772 18.6785 14.1022 18.0835 14.2572 17.3485L15.0122 13.8285C15.1722 13.0935 14.7022 12.4985 13.9722 12.4985H7.94723C6.57223 12.4985 5.60223 11.4385 5.85723 10.0585C6.11223 8.67851 7.51223 7.46351 8.92223 7.46351H18.3922C19.1222 7.46351 19.5922 8.05852 19.4322 8.79352L17.5972 17.3485C17.4372 18.0835 17.9072 18.6785 18.6372 18.6785H23.0322C23.7622 18.6785 24.4872 18.0835 24.6422 17.3485L26.4772 8.79352C26.6372 8.05852 27.3572 7.46351 28.0872 7.46351C28.8172 7.46351 29.5422 6.86852 29.6972 6.13352L30.8572 0.728516H28.2072Z" fill="black"/>
<path d="M198.397 -0.00195312C197.342 -0.00195312 196.437 0.743047 196.232 1.77805L193.132 17.323C192.857 18.693 193.902 19.973 195.297 19.978L234.212 20.003C235.267 20.003 236.172 19.258 236.377 18.223L240.002 0.0230469L198.397 -0.00195312ZM208.652 15.603H201.687L203.917 5.05305H206.062L204.212 13.838H209.257L208.652 15.608V15.603ZM218.652 15.603L219.487 11.643C219.862 9.84305 220.332 7.72805 220.617 6.53805H220.557C219.637 8.67305 217.922 12.303 216.307 15.603H214.442C214.297 13.003 214.047 8.51305 214.052 6.51305H213.982C213.817 7.73805 213.377 10.013 212.992 11.823L212.192 15.608H210.202L212.432 5.05805H215.677C215.842 7.62805 216.012 11.233 216.012 12.798H216.027C216.587 11.373 218.347 7.93805 219.727 5.05805H222.972L220.742 15.608H218.647L218.652 15.603ZM227.917 9.24305C230.052 9.99305 231.112 10.848 231.112 12.443C231.112 14.123 230.097 15.753 226.852 15.753C224.227 15.753 222.847 14.418 222.787 12.358H224.977C225.062 13.423 225.737 14.093 227.072 14.093C228.212 14.093 228.857 13.673 228.857 12.713C228.857 11.898 228.347 11.463 226.947 10.978C224.807 10.243 224.017 9.37805 224.017 8.05305C224.017 6.35805 225.212 4.89805 227.882 4.89805C230.317 4.89805 231.652 6.15805 231.687 8.01305H229.502C229.457 7.37305 229.172 6.58305 227.787 6.58305C226.892 6.58305 226.232 6.99305 226.232 7.80805C226.232 8.39305 226.567 8.76805 227.917 9.23805V9.24305Z" fill="black"/>
</svg>
